<svg width="19" height="20" viewBox="0 0 19 20" fill="none" xmlns="http://www.w3.org/2000/svg">
<path d="M18.6308 7.41256C18.5731 7.24274 18.467 7.09353 18.3255 6.98335C18.184 6.87316 18.0134 6.80681 17.8346 6.79251L12.6054 6.377L10.3426 1.36798C10.2706 1.20665 10.1533 1.06963 10.0051 0.973442C9.85691 0.877257 9.68402 0.826025 9.50733 0.825928C9.33063 0.825831 9.15769 0.876874 9.00936 0.972896C8.86104 1.06892 8.74367 1.20582 8.67143 1.36707L6.40861 6.377L1.17946 6.79251C1.00377 6.80642 0.835807 6.87066 0.69567 6.97754C0.555532 7.08442 0.449152 7.2294 0.389257 7.39516C0.329361 7.56091 0.318487 7.74041 0.357935 7.91218C0.397382 8.08395 0.485481 8.24072 0.611692 8.36373L4.476 12.1308L3.10932 18.0488C3.06782 18.2279 3.08112 18.4154 3.1475 18.5869C3.21387 18.7584 3.33025 18.9059 3.48154 19.0105C3.63282 19.115 3.81203 19.1716 3.9959 19.173C4.17978 19.1744 4.35983 19.1205 4.51269 19.0183L9.50703 15.6888L14.5014 19.0183C14.6576 19.1221 14.8419 19.1755 15.0294 19.1713C15.2169 19.1672 15.3986 19.1058 15.5501 18.9953C15.7017 18.8848 15.8157 18.7306 15.877 18.5533C15.9383 18.3761 15.9438 18.1843 15.8928 18.0039L14.2152 12.1336L18.3758 8.38941C18.6482 8.14359 18.7482 7.76019 18.6308 7.41256V7.41256Z" fill="#F3CD03"/>
</svg>
