<svg width="19" height="20" viewBox="0 0 19 20" fill="none" xmlns="http://www.w3.org/2000/svg">
<path d="M4.53236 12.1308L3.16568 18.0488C3.12336 18.228 3.13607 18.4158 3.20214 18.5877C3.26821 18.7596 3.38457 18.9075 3.53603 19.0122C3.68749 19.1169 3.86701 19.1735 4.05114 19.1746C4.23526 19.1757 4.41544 19.1212 4.56813 19.0183L9.56247 15.6888L14.5568 19.0183C14.713 19.1221 14.8973 19.1755 15.0848 19.1714C15.2723 19.1673 15.454 19.1058 15.6056 18.9953C15.7571 18.8849 15.8712 18.7306 15.9324 18.5534C15.9937 18.3761 15.9992 18.1844 15.9483 18.0039L14.2706 12.1336L18.4312 8.38944C18.5645 8.26946 18.6596 8.11304 18.7049 7.93955C18.7502 7.76605 18.7437 7.58308 18.6861 7.41327C18.6285 7.24345 18.5224 7.09424 18.3809 6.98408C18.2395 6.87392 18.0688 6.80764 17.89 6.79345L12.6609 6.37703L10.3981 1.36801C10.3259 1.20672 10.2086 1.06976 10.0604 0.973657C9.91208 0.877554 9.73917 0.826416 9.56247 0.826416C9.38578 0.826416 9.21286 0.877554 9.06459 0.973657C8.91631 1.06976 8.79902 1.20672 8.72687 1.36801L6.46405 6.37703L1.2349 6.79254C1.05921 6.80645 0.89125 6.87069 0.751112 6.97757C0.610975 7.08445 0.504595 7.22943 0.444699 7.39519C0.384804 7.56094 0.37393 7.74044 0.413378 7.91221C0.452825 8.08398 0.540924 8.24074 0.667135 8.36376L4.53236 12.1308V12.1308ZM7.14923 8.16288C7.31295 8.14998 7.47019 8.09328 7.60445 7.99871C7.73872 7.90414 7.84508 7.77519 7.91237 7.62538L9.56247 3.97387L11.2126 7.62538C11.2799 7.77519 11.3862 7.90414 11.5205 7.99871C11.6548 8.09328 11.812 8.14998 11.9757 8.16288L15.619 8.45181L12.6187 11.1521C12.3582 11.387 12.2546 11.7484 12.3499 12.0859L13.4992 16.108L10.0725 13.8231C9.92204 13.7222 9.74499 13.6683 9.56385 13.6683C9.3827 13.6683 9.20565 13.7222 9.05524 13.8231L5.47436 16.2107L6.43746 12.0409C6.47277 11.8876 6.46803 11.7277 6.42369 11.5767C6.37936 11.4257 6.29692 11.2887 6.1843 11.1787L3.39774 8.4619L7.14923 8.16288V8.16288Z" fill="#F3CD03"/>
</svg>
