<svg width="14" height="14" viewBox="0 0 14 14" fill="none" xmlns="http://www.w3.org/2000/svg">
<path d="M12.621 5.15821L8.7111 4.58998L6.96327 1.04658C6.91553 0.94956 6.837 0.871023 6.73998 0.823285C6.49667 0.703169 6.201 0.803265 6.07935 1.04658L4.33152 4.58998L0.421611 5.15821C0.313816 5.17361 0.215259 5.22443 0.139802 5.30143C0.048579 5.39519 -0.00168917 5.52133 4.3343e-05 5.65214C0.00177586 5.78294 0.0553674 5.90771 0.149042 5.99902L2.97791 8.75705L2.30958 12.6516C2.2939 12.7421 2.30393 12.8353 2.33851 12.9205C2.3731 13.0057 2.43086 13.0795 2.50525 13.1335C2.57964 13.1875 2.66768 13.2197 2.75939 13.2262C2.8511 13.2327 2.9428 13.2134 3.02411 13.1705L6.52131 11.3318L10.0185 13.1705C10.114 13.2213 10.2249 13.2383 10.3311 13.2198C10.5991 13.1736 10.7792 12.9195 10.733 12.6516L10.0647 8.75705L12.8936 5.99902C12.9706 5.92356 13.0214 5.82501 13.0368 5.71721C13.0784 5.44772 12.8905 5.19825 12.621 5.15821Z" fill="#FFB742"/>
</svg>
